<svg xmlns="http://www.w3.org/2000/svg" xmlns:xlink="http://www.w3.org/1999/xlink" viewBox="0 0 40 40" version="1.1" width="40" height="40">
<g id="surface1">
<path style=" fill:#98CCFD;" d="M 2.5 2.5 L 37.5 2.5 L 37.5 37.5 L 2.5 37.5 Z "/>
<path style=" fill:#4788C7;" d="M 37 3 L 37 37 L 3 37 L 3 3 L 37 3 M 38 2 L 2 2 L 2 38 L 38 38 Z "/>
<path style=" fill:#FFFFFF;" d="M 26 37 L 26 24 L 30.929688 24 L 31.628906 19 L 26 19 L 26 15.617188 C 26 14.046875 26.703125 12.980469 28.949219 12.980469 L 32 12.980469 L 32 8.226563 C 31.503906 8.160156 29.617188 8.011719 27.640625 8.011719 C 23.503906 8.011719 21 10.535156 21 15.167969 L 21 19 L 16 19 L 16 24 L 21 24 L 21 37 Z "/>
</g>
</svg>