<svg xmlns="http://www.w3.org/2000/svg" xmlns:xlink="http://www.w3.org/1999/xlink" version="1.1" id="Layer_1" x="0px" y="0px" viewBox="0 0 16 16" style="enable-background:new 0 0 16 16;" xml:space="preserve" width="50" height="50">
<path style="fill:#F78F8F;" d="M14.358,10.917c-0.139,0.7-0.731,1.233-1.461,1.333c-1.148,0.167-2.686,0.375-4.842,0.375  c-2.122,0-3.622-0.208-4.804-0.375c-0.731-0.1-1.322-0.633-1.461-1.333c-0.139-0.767-0.3-1.525-0.3-2.925s0.161-2.108,0.3-2.875  c0.139-0.7,0.731-1.233,1.461-1.333c1.148-0.167,2.647-0.358,4.804-0.358s3.66,0.192,4.842,0.358c0.731,0.1,1.322,0.633,1.461,1.333  c0.139,0.767,0.291,1.475,0.291,2.875C14.614,9.392,14.497,10.15,14.358,10.917z"/>
<g>
	<path style="fill:#C74343;" d="M8.033,4c2.104,0,3.923,0.194,5.083,0.357c0.313,0.043,0.561,0.259,0.613,0.521   c0.128,0.703,0.297,1.79,0.297,3.097c-0.038,1.52-0.202,2.624-0.294,3.13c-0.055,0.279-0.303,0.495-0.624,0.539   C12.369,11.751,10.398,12,8.033,12C5.817,12,3.9,11.776,2.95,11.643C2.637,11.6,2.39,11.384,2.337,11.121   C2.218,10.462,2.075,9.386,2.075,8s0.143-2.462,0.259-3.105C2.39,4.616,2.637,4.4,2.958,4.356C3.696,4.249,5.668,4,8.033,4    M8.033,3c-2.157,0-4.07,0.2-5.218,0.367C2.084,3.467,1.492,4,1.353,4.7C1.214,5.467,1.075,6.6,1.075,8s0.139,2.533,0.278,3.3   c0.139,0.7,0.731,1.233,1.461,1.333C3.997,12.8,5.911,13,8.033,13c2.157,0,4.07-0.2,5.218-0.367c0.731-0.1,1.322-0.633,1.461-1.333   c0.139-0.767,0.278-1.9,0.313-3.3c0-1.4-0.174-2.533-0.313-3.3c-0.139-0.7-0.731-1.233-1.461-1.333C12.068,3.2,10.189,3,8.033,3   L8.033,3z"/>
</g>
<polygon style="fill:#FFFFFF;" points="7.025,10 7.025,6 10.525,8 "/>
</svg>